<?xml version="1.0" standalone="yes"?><svg xmlns="http://www.w3.org/2000/svg" viewBox="0 0 1920 1080" style="zoom: 1;"><defs><!-- Deep radial base — slightly lifted in center for text readability --><radialGradient id="base" cx="38%" cy="42%" r="72%" fx="38%" fy="42%"><stop offset="0%" stop-color="#151f35"></stop><stop offset="55%" stop-color="#0f172a"></stop><stop offset="100%" stop-color="#070b15"></stop></radialGradient><!-- Accent glow — bottom right cluster --><radialGradient id="glow-br" cx="78%" cy="72%" r="40%"><stop offset="0%" stop-color="#38bdf8" stop-opacity=".18"></stop><stop offset="100%" stop-color="#38bdf8" stop-opacity="0"></stop></radialGradient><!-- Accent glow — top left whisper --><radialGradient id="glow-tl" cx="12%" cy="18%" r="30%"><stop offset="0%" stop-color="#38bdf8" stop-opacity=".09"></stop><stop offset="100%" stop-color="#38bdf8" stop-opacity="0"></stop></radialGradient><!-- Diagonal line gradient --><linearGradient id="diag" x1="0" y1="0" x2="1" y2="1"><stop offset="0%" stop-color="#38bdf8" stop-opacity=".18"></stop><stop offset="100%" stop-color="#38bdf8" stop-opacity="0"></stop></linearGradient><!-- Fine grid --><pattern id="grid" width="72" height="72" patternUnits="userSpaceOnUse"><path d="M72 0V72H0" fill="none" stroke="#38bdf8" stroke-opacity=".07" stroke-width=".5"></path></pattern><!-- Dot field pattern — scattered data points --><pattern id="dots" width="240" height="240" patternUnits="userSpaceOnUse"><circle cx="30" cy="45" r="1.2" fill="#38bdf8" opacity=".16"></circle><circle cx="180" cy="20" r="1" fill="#38bdf8" opacity=".12"></circle><circle cx="120" cy="190" r="1.4" fill="#38bdf8" opacity=".14"></circle><circle cx="210" cy="130" r=".9" fill="#38bdf8" opacity=".10"></circle><circle cx="60" cy="160" r="1.1" fill="#38bdf8" opacity=".12"></circle></pattern></defs><!-- 1. Deep base --><rect width="1920" height="1080" fill="url(#base)"></rect><!-- 2. Grid overlay --><rect width="1920" height="1080" fill="url(#grid)"></rect><!-- 3. Scattered dot field --><rect width="1920" height="1080" fill="url(#dots)"></rect><!-- 4. Accent glows --><rect width="1920" height="1080" fill="url(#glow-br)"></rect><rect width="1920" height="1080" fill="url(#glow-tl)"></rect><!-- 5. Corner geometry — top right --><!-- 6. Corner geometry — bottom left --><!-- 7. Concentric arcs — bottom right (observatory motif) --><circle cx="1740" cy="920" r="160" fill="none" stroke="#38bdf8" stroke-opacity=".12" stroke-width=".75"></circle><circle cx="1740" cy="920" r="260" fill="none" stroke="#38bdf8" stroke-opacity=".08" stroke-width=".5"></circle><circle cx="1740" cy="920" r="380" fill="none" stroke="#38bdf8" stroke-opacity=".05" stroke-width=".5"></circle><circle cx="1740" cy="920" r="520" fill="none" stroke="#38bdf8" stroke-opacity=".03" stroke-width=".5"></circle><!-- 8. Constellation cluster — top right --><circle cx="1520" cy="140" r="3" fill="#38bdf8" opacity=".5"></circle><circle cx="1660" cy="90" r="2.2" fill="#38bdf8" opacity=".4"></circle><circle cx="1780" cy="200" r="2.5" fill="#38bdf8" opacity=".35"></circle><circle cx="1620" cy="280" r="2" fill="#38bdf8" opacity=".28"></circle><circle cx="1840" cy="60" r="1.8" fill="#38bdf8" opacity=".25"></circle><circle cx="1440" cy="250" r="2.2" fill="#38bdf8" opacity=".22"></circle><!-- Connecting lines --><line x1="1520" y1="140" x2="1660" y2="90" stroke="#38bdf8" stroke-opacity=".16" stroke-width=".5"></line><line x1="1660" y1="90" x2="1780" y2="200" stroke="#38bdf8" stroke-opacity=".14" stroke-width=".5"></line><line x1="1780" y1="200" x2="1620" y2="280" stroke="#38bdf8" stroke-opacity=".12" stroke-width=".5"></line><line x1="1520" y1="140" x2="1440" y2="250" stroke="#38bdf8" stroke-opacity=".10" stroke-width=".5"></line><line x1="1660" y1="90" x2="1840" y2="60" stroke="#38bdf8" stroke-opacity=".12" stroke-width=".5"></line><line x1="1520" y1="140" x2="1620" y2="280" stroke="#38bdf8" stroke-opacity=".08" stroke-width=".5"></line><!-- 9. Constellation cluster — bottom left --><circle cx="240" cy="880" r="2.5" fill="#38bdf8" opacity=".42"></circle><circle cx="120" cy="800" r="2" fill="#38bdf8" opacity=".32"></circle><circle cx="350" cy="760" r="2.2" fill="#38bdf8" opacity=".28"></circle><circle cx="80" cy="960" r="1.8" fill="#38bdf8" opacity=".22"></circle><circle cx="400" cy="920" r="2.8" fill="#38bdf8" opacity=".35"></circle><line x1="240" y1="880" x2="120" y2="800" stroke="#38bdf8" stroke-opacity=".14" stroke-width=".5"></line><line x1="240" y1="880" x2="350" y2="760" stroke="#38bdf8" stroke-opacity=".12" stroke-width=".5"></line><line x1="240" y1="880" x2="400" y2="920" stroke="#38bdf8" stroke-opacity=".13" stroke-width=".5"></line><line x1="240" y1="880" x2="80" y2="960" stroke="#38bdf8" stroke-opacity=".09" stroke-width=".5"></line><line x1="120" y1="800" x2="350" y2="760" stroke="#38bdf8" stroke-opacity=".08" stroke-width=".5"></line><!-- 10. Lone sentinel nodes in quiet zones --><circle cx="960" cy="60" r="1.5" fill="#38bdf8" opacity=".16"></circle><circle cx="100" cy="200" r="1.8" fill="#38bdf8" opacity=".14"></circle><circle cx="1850" cy="540" r="1.3" fill="#38bdf8" opacity=".12"></circle><circle cx="700" cy="1020" r="1.6" fill="#38bdf8" opacity=".14"></circle><circle cx="1300" cy="980" r="1.3" fill="#38bdf8" opacity=".10"></circle><!-- 11. Crossing meridian lines --><line x1="0" y1="0" x2="1920" y2="1080" stroke="url(#diag)" stroke-width=".75" opacity=".7"></line><line x1="300" y1="0" x2="1920" y2="780" stroke="#38bdf8" stroke-opacity=".04" stroke-width=".5"></line><line x1="0" y1="300" x2="1620" y2="1080" stroke="#38bdf8" stroke-opacity=".035" stroke-width=".5"></line></svg>